<svg width="128" height="30" viewBox="0 0 128 30" fill="none" xmlns="http://www.w3.org/2000/svg">
<path d="M4.148 1.46C4.772 1.46 5.312 1.688 5.768 2.144C6.224 2.6 6.452 3.14 6.452 3.764C6.452 4.388 6.224 4.928 5.768 5.384C5.312 5.84 4.772 6.068 4.148 6.068C3.524 6.068 2.984 5.84 2.528 5.384C2.072 4.928 1.844 4.388 1.844 3.764C1.844 3.14 2.072 2.6 2.528 2.144C2.984 1.688 3.524 1.46 4.148 1.46ZM6.02 25.652C6.02 26.636 6.224 27.32 6.632 27.704C7.04 28.064 7.748 28.244 8.756 28.244V29C6.548 28.904 5.096 28.856 4.4 28.856C3.704 28.856 2.252 28.904 0.044 29V28.244C1.052 28.244 1.76 28.064 2.168 27.704C2.576 27.32 2.78 26.636 2.78 25.652V14.384C2.78 13.28 2.576 12.476 2.168 11.972C1.76 11.468 1.052 11.216 0.044 11.216V10.46C0.812 10.532 1.556 10.568 2.276 10.568C3.788 10.568 5.036 10.4 6.02 10.064V25.652ZM26.9709 25.076C26.9709 26.18 27.1749 26.984 27.5829 27.488C27.9909 27.992 28.6989 28.244 29.7069 28.244V29C28.9629 28.928 28.2189 28.892 27.4749 28.892C25.9629 28.892 24.7149 29.06 23.7309 29.396V26.192C23.2989 27.272 22.6509 28.1 21.7869 28.676C20.9229 29.228 19.8669 29.504 18.6189 29.504C16.3149 29.504 14.5029 28.676 13.1829 27.02C11.8869 25.364 11.2509 22.94 11.2749 19.748C11.2749 17.66 11.6349 15.884 12.3549 14.42C13.0989 12.932 14.0829 11.816 15.3069 11.072C16.5549 10.328 17.9229 9.956 19.4109 9.956C20.3229 9.956 21.1509 10.136 21.8949 10.496C22.6629 10.832 23.2749 11.36 23.7309 12.08V5.096C23.7309 3.992 23.5269 3.188 23.1189 2.684C22.7109 2.18 22.0029 1.928 20.9949 1.928V1.172C21.7629 1.244 22.5069 1.28 23.2269 1.28C24.7389 1.28 25.9869 1.112 26.9709 0.775999V25.076ZM19.6629 28.424C20.5989 28.424 21.4389 28.064 22.1829 27.344C22.9269 26.624 23.4429 25.604 23.7309 24.284V13.556C23.0829 11.708 21.7389 10.784 19.6989 10.784C18.2109 10.784 17.0109 11.552 16.0989 13.088C15.1869 14.6 14.7429 16.82 14.7669 19.748C14.7429 22.628 15.1509 24.8 15.9909 26.264C16.8309 27.704 18.0549 28.424 19.6629 28.424ZM47.4928 26.372C47.9488 26.972 48.3568 27.416 48.7168 27.704C49.0768 27.992 49.5088 28.172 50.0128 28.244V29C48.5728 28.904 47.6008 28.856 47.0968 28.856C46.4488 28.856 45.1168 28.904 43.1008 29V28.244C43.4368 28.244 43.7008 28.184 43.8928 28.064C44.1088 27.92 44.2168 27.752 44.2168 27.56C44.2168 27.368 44.1448 27.188 44.0008 27.02L39.8608 20.972C39.4528 20.372 39.0568 19.976 38.6728 19.784C38.3128 19.568 37.8088 19.436 37.1608 19.388V25.652C37.1608 26.636 37.3288 27.32 37.6648 27.704C38.0248 28.064 38.6488 28.244 39.5368 28.244V29C37.5208 28.904 36.1888 28.856 35.5408 28.856C34.8448 28.856 33.3928 28.904 31.1848 29V28.244C32.1928 28.244 32.9008 28.064 33.3088 27.704C33.7168 27.32 33.9208 26.636 33.9208 25.652V5.096C33.9208 3.992 33.7168 3.188 33.3088 2.684C32.9008 2.18 32.1928 1.928 31.1848 1.928V1.172C31.9528 1.244 32.6968 1.28 33.4168 1.28C34.9288 1.28 36.1768 1.112 37.1608 0.775999V18.632C37.8568 18.536 38.4328 18.38 38.8888 18.164C39.3688 17.924 39.8248 17.588 40.2568 17.156L42.9208 14.384C43.6888 13.592 44.0728 12.932 44.0728 12.404C44.0728 11.996 43.8208 11.696 43.3168 11.504C42.8368 11.288 42.2008 11.18 41.4088 11.18V10.46C43.0888 10.556 44.4448 10.604 45.4768 10.604C46.6048 10.604 47.6488 10.556 48.6088 10.46V11.18C47.4328 11.276 46.3528 11.84 45.3688 12.872L40.9768 17.48L47.4928 26.372ZM54.7938 24.896C55.4178 24.896 55.9578 25.124 56.4138 25.58C56.8698 26.036 57.0978 26.576 57.0978 27.2C57.0978 27.824 56.8698 28.364 56.4138 28.82C55.9578 29.276 55.4178 29.504 54.7938 29.504C54.1698 29.504 53.6298 29.276 53.1738 28.82C52.7178 28.364 52.4898 27.824 52.4898 27.2C52.4898 26.576 52.7178 26.036 53.1738 25.58C53.6298 25.124 54.1698 24.896 54.7938 24.896ZM69.3721 9.956C70.9801 9.956 72.3721 10.34 73.5481 11.108C74.6761 11.852 75.2401 12.776 75.2401 13.88C75.2401 14.504 75.0601 14.996 74.7001 15.356C74.3401 15.716 73.8841 15.896 73.3321 15.896C72.7801 15.896 72.3121 15.74 71.9281 15.428C71.5441 15.092 71.3521 14.648 71.3521 14.096C71.3521 13.592 71.4961 13.172 71.7841 12.836C72.0721 12.476 72.4321 12.236 72.8641 12.116C72.6241 11.684 72.1921 11.324 71.5681 11.036C70.9681 10.748 70.3201 10.604 69.6241 10.604C68.7361 10.604 67.9081 10.892 67.1401 11.468C66.3721 12.02 65.7361 12.956 65.2321 14.276C64.7281 15.572 64.4761 17.288 64.4761 19.424C64.4761 22.4 64.9561 24.572 65.9161 25.94C66.8761 27.284 68.1241 27.956 69.6601 27.956C70.6921 27.956 71.6641 27.656 72.5761 27.056C73.5121 26.456 74.2801 25.52 74.8801 24.248L75.5641 24.5C75.1561 25.868 74.3881 27.044 73.2601 28.028C72.1561 29.012 70.7161 29.504 68.9401 29.504C67.4521 29.504 66.0961 29.12 64.8721 28.352C63.6721 27.584 62.7241 26.48 62.0281 25.04C61.3321 23.576 60.9841 21.884 60.9841 19.964C60.9841 18.02 61.3321 16.292 62.0281 14.78C62.7481 13.268 63.7441 12.092 65.0161 11.252C66.2881 10.388 67.7401 9.956 69.3721 9.956ZM86.6999 9.956C89.1479 9.956 91.1159 10.772 92.6039 12.404C94.1159 14.012 94.8719 16.46 94.8719 19.748C94.8719 23.036 94.1159 25.484 92.6039 27.092C91.1159 28.7 89.1479 29.504 86.6999 29.504C84.2519 29.504 82.2719 28.7 80.7599 27.092C79.2719 25.484 78.5279 23.036 78.5279 19.748C78.5279 16.46 79.2719 14.012 80.7599 12.404C82.2719 10.772 84.2519 9.956 86.6999 9.956ZM86.6999 10.676C85.2599 10.676 84.1199 11.42 83.2799 12.908C82.4399 14.372 82.0199 16.652 82.0199 19.748C82.0199 22.844 82.4399 25.124 83.2799 26.588C84.1199 28.052 85.2599 28.784 86.6999 28.784C88.1399 28.784 89.2799 28.052 90.1199 26.588C90.9599 25.124 91.3799 22.844 91.3799 19.748C91.3799 16.652 90.9599 14.372 90.1199 12.908C89.2799 11.42 88.1399 10.676 86.6999 10.676ZM125.251 25.652C125.251 26.636 125.455 27.32 125.863 27.704C126.271 28.064 126.979 28.244 127.987 28.244V29C125.779 28.904 124.339 28.856 123.667 28.856C122.995 28.856 121.651 28.904 119.635 29V28.244C120.523 28.244 121.135 28.064 121.471 27.704C121.831 27.32 122.011 26.636 122.011 25.652V15.248C122.011 14.336 121.951 13.604 121.831 13.052C121.735 12.476 121.483 12.008 121.075 11.648C120.691 11.288 120.091 11.108 119.275 11.108C118.363 11.108 117.535 11.396 116.791 11.972C116.047 12.548 115.459 13.34 115.027 14.348C114.619 15.332 114.415 16.424 114.415 17.624V25.652C114.415 26.636 114.619 27.32 115.027 27.704C115.435 28.064 116.143 28.244 117.151 28.244V29C114.943 28.904 113.503 28.856 112.831 28.856C112.159 28.856 110.815 28.904 108.799 29V28.244C109.687 28.244 110.299 28.064 110.635 27.704C110.995 27.32 111.175 26.636 111.175 25.652V15.248C111.175 14.336 111.115 13.604 110.995 13.052C110.899 12.476 110.647 12.008 110.239 11.648C109.855 11.288 109.255 11.108 108.439 11.108C107.527 11.108 106.699 11.396 105.955 11.972C105.211 12.548 104.623 13.34 104.191 14.348C103.783 15.356 103.579 16.46 103.579 17.66V25.652C103.579 26.636 103.747 27.32 104.083 27.704C104.443 28.064 105.067 28.244 105.955 28.244V29C103.939 28.904 102.595 28.856 101.923 28.856C101.251 28.856 99.8106 28.904 97.6026 29V28.244C98.6106 28.244 99.3186 28.064 99.7266 27.704C100.135 27.32 100.339 26.636 100.339 25.652V14.384C100.339 13.28 100.135 12.476 99.7266 11.972C99.3186 11.468 98.6106 11.216 97.6026 11.216V10.46C98.3706 10.532 99.1146 10.568 99.8346 10.568C101.347 10.568 102.595 10.4 103.579 10.064V14.312C104.155 12.824 104.971 11.732 106.027 11.036C107.083 10.316 108.235 9.956 109.483 9.956C111.115 9.956 112.363 10.412 113.227 11.324C113.827 11.948 114.199 12.908 114.343 14.204C114.943 12.692 115.771 11.612 116.827 10.964C117.883 10.292 119.047 9.956 120.319 9.956C121.951 9.956 123.199 10.412 124.063 11.324C124.495 11.804 124.795 12.416 124.963 13.16C125.155 13.904 125.251 14.864 125.251 16.04V25.652Z" fill="#F3F3F3"/>
</svg>
